# xmcd CD database file
#
# Track frame offsets:
#	150
#	17119
#	31848
#	55399
#	72059
#	89131
#	105369
#	115169
#	134820
#	146333
#
# Disc length: 2214 seconds
#
# Revision: 1
# Processed by: cddbd v1.5.2PL0 Copyright (c) Steve Scherf et al.
# Submitted via: CDex 1.94
#
DISCID=8a08a40a
DTITLE=Roddy Ray'Da - Guns Girls and Guitars
DYEAR=2005
DGENRE=Rock
TTITLE0=In Pursuit
TTITLE1=Breakin' Skin
TTITLE2=E.N.D.
TTITLE3=Demonica
TTITLE4=Love Spell
TTITLE5=5 Hail Marys
TTITLE6=Shot Gun Boogie
TTITLE7=Pasta Bullets
TTITLE8=Cruizin'
TTITLE9=The Drug That Killed Elvis
EXTD=YEAR: 2005
EXTT0=
EXTT1=
EXTT2=
EXTT3=
EXTT4=
EXTT5=
EXTT6=
EXTT7=
EXTT8=
EXTT9=
PLAYORDER=
